<svg width="25" height="25" viewBox="0 0 25 25" fill="none" xmlns="http://www.w3.org/2000/svg">
<path d="M19.8916 8.75H4.89157C4.47736 8.75 4.14157 9.08579 4.14157 9.5V20C4.14157 20.4142 4.47736 20.75 4.89157 20.75H19.8916C20.3058 20.75 20.6416 20.4142 20.6416 20V9.5C20.6416 9.08579 20.3058 8.75 19.8916 8.75Z" stroke="#6D737A" stroke-width="1.5" stroke-linecap="round" stroke-linejoin="round"/>
<path d="M9.01657 8.75V5.375C9.01657 4.47989 9.37215 3.62145 10.0051 2.98851C10.638 2.35558 11.4965 2 12.3916 2C13.2867 2 14.1451 2.35558 14.7781 2.98851C15.411 3.62145 15.7666 4.47989 15.7666 5.375V8.75" stroke="#6D737A" stroke-width="1.5" stroke-linecap="round" stroke-linejoin="round"/>
<path d="M12.3916 15.875C13.0129 15.875 13.5166 15.3713 13.5166 14.75C13.5166 14.1287 13.0129 13.625 12.3916 13.625C11.7703 13.625 11.2666 14.1287 11.2666 14.75C11.2666 15.3713 11.7703 15.875 12.3916 15.875Z" fill="#6D737A"/>
</svg>
